<svg viewBox="0 0 88 88" xmlns="http://www.w3.org/2000/svg">
  <defs>
    <linearGradient id="bg" x1="0%" y1="0%" x2="100%" y2="100%">
      <stop offset="0%" stop-color="#007AFF" />
      <stop offset="100%" stop-color="#5273de" />
    </linearGradient>
  </defs>
  <rect width="88" height="88" rx="22" fill="url(#bg)" />
  <svg x="21" y="21" width="46" height="46" viewBox="0 0 24 24" fill="white">
    <path d="M21 18v1c0 1.1-.9 2-2 2H5c-1.1 0-2-.9-2-2V5c0-1.1.9-2 2-2h14c1.1 0 2 .9 2 2v1h-9c-1.1 0-2 .9 2 2v8c0 1.1.9 2 2 2h9zm-9-2h10V8H12v8zm4-2.5c-.83 0-1.5-.67-1.5-1.5s.67-1.5 1.5-1.5 1.5.67 1.5 1.5-.67 1.5-1.5 1.5z"/>
  </svg>
</svg>
